<mxfile host="app.diagrams.net" modified="2022-03-18T09:14:45.919Z" agent="5.0 (Windows NT 10.0; Win64; x64) AppleWebKit/537.36 (KHTML, like Gecko) Chrome/99.0.4844.51 Safari/537.36" etag="42CmPt-Tje2fKXFAncYh" version="17.1.3" type="github">
  <diagram id="kgpKYQtTHZ0yAKxKKP6v" name="Page-1">
    <mxGraphModel dx="1677" dy="459" grid="1" gridSize="10" guides="1" tooltips="1" connect="1" arrows="1" fold="1" page="1" pageScale="1" pageWidth="850" pageHeight="1100" math="0" shadow="0">
      <root>
        <mxCell id="0" />
        <mxCell id="1" parent="0" />
        <mxCell id="3nuBFxr9cyL0pnOWT2aG-1" value="GRAB CREATION ORDER" style="shape=table;childLayout=tableLayout;startSize=67;collapsible=0;recursiveResize=0;expand=0;fillColor=none;fontStyle=1" parent="1" vertex="1">
          <mxGeometry x="40" y="60" width="670" height="67" as="geometry" />
        </mxCell>
        <mxCell id="3nuBFxr9cyL0pnOWT2aG-15" value="" style="shape=tableRow;horizontal=0;swimlaneHead=0;swimlaneBody=0;top=0;left=0;bottom=0;right=0;fillColor=none;points=[[0,0.5],[1,0.5]];portConstraint=eastwest;startSize=40;collapsible=0;recursiveResize=0;expand=0;fontStyle=1;" parent="3nuBFxr9cyL0pnOWT2aG-1" vertex="1" visible="0">
          <mxGeometry y="40" width="670" height="27" as="geometry" />
        </mxCell>
        <mxCell id="3nuBFxr9cyL0pnOWT2aG-16" value="" style="swimlane;swimlaneHead=0;swimlaneBody=0;connectable=0;fillColor=none;startSize=0;collapsible=0;recursiveResize=0;expand=0;fontStyle=1;" parent="3nuBFxr9cyL0pnOWT2aG-15" vertex="1">
          <mxGeometry x="40" width="130" height="27" as="geometry">
            <mxRectangle width="130" height="27" as="alternateBounds" />
          </mxGeometry>
        </mxCell>
        <mxCell id="3nuBFxr9cyL0pnOWT2aG-18" value="" style="swimlane;swimlaneHead=0;swimlaneBody=0;connectable=0;fillColor=none;startSize=0;collapsible=0;recursiveResize=0;expand=0;fontStyle=1;" parent="3nuBFxr9cyL0pnOWT2aG-15" vertex="1">
          <mxGeometry x="170" width="370" height="27" as="geometry">
            <mxRectangle width="370" height="27" as="alternateBounds" />
          </mxGeometry>
        </mxCell>
        <mxCell id="3nuBFxr9cyL0pnOWT2aG-23" value="" style="swimlane;swimlaneHead=0;swimlaneBody=0;connectable=0;fillColor=none;startSize=0;collapsible=0;recursiveResize=0;expand=0;fontStyle=1;" parent="3nuBFxr9cyL0pnOWT2aG-15" vertex="1">
          <mxGeometry x="540" width="130" height="27" as="geometry">
            <mxRectangle width="130" height="27" as="alternateBounds" />
          </mxGeometry>
        </mxCell>
        <mxCell id="SgwJnI46MebYwalEIYTJ-3" value="" style="edgeStyle=orthogonalEdgeStyle;rounded=0;orthogonalLoop=1;jettySize=auto;html=1;" edge="1" parent="1" source="SgwJnI46MebYwalEIYTJ-1" target="SgwJnI46MebYwalEIYTJ-2">
          <mxGeometry relative="1" as="geometry" />
        </mxCell>
        <mxCell id="SgwJnI46MebYwalEIYTJ-1" value="Request from Grab" style="triangle;whiteSpace=wrap;html=1;" vertex="1" parent="1">
          <mxGeometry x="50" y="160" width="130" height="80" as="geometry" />
        </mxCell>
        <mxCell id="SgwJnI46MebYwalEIYTJ-2" value="MuleSoft-API&lt;br&gt;grab\create\1.0:apiConfig" style="ellipse;whiteSpace=wrap;html=1;" vertex="1" parent="1">
          <mxGeometry x="270" y="170" width="200" height="60" as="geometry" />
        </mxCell>
        <mxCell id="SgwJnI46MebYwalEIYTJ-5" value="" style="edgeStyle=orthogonalEdgeStyle;rounded=0;orthogonalLoop=1;jettySize=auto;html=1;" edge="1" parent="1">
          <mxGeometry relative="1" as="geometry">
            <mxPoint x="470" y="199.5" as="sourcePoint" />
            <mxPoint x="560" y="199.5" as="targetPoint" />
          </mxGeometry>
        </mxCell>
        <mxCell id="SgwJnI46MebYwalEIYTJ-6" value="Authentication common" style="ellipse;whiteSpace=wrap;html=1;" vertex="1" parent="1">
          <mxGeometry x="560" y="170" width="100" height="60" as="geometry" />
        </mxCell>
        <mxCell id="SgwJnI46MebYwalEIYTJ-8" value="pubish-message-to-queue-order_grab" style="ellipse;whiteSpace=wrap;html=1;" vertex="1" parent="1">
          <mxGeometry x="550" y="270" width="120" height="70" as="geometry" />
        </mxCell>
        <mxCell id="SgwJnI46MebYwalEIYTJ-9" value="" style="edgeStyle=orthogonalEdgeStyle;rounded=0;orthogonalLoop=1;jettySize=auto;html=1;entryX=0.5;entryY=0;entryDx=0;entryDy=0;" edge="1" parent="1" source="SgwJnI46MebYwalEIYTJ-6" target="SgwJnI46MebYwalEIYTJ-8">
          <mxGeometry relative="1" as="geometry">
            <mxPoint x="480" y="209.5" as="sourcePoint" />
            <mxPoint x="570" y="209.5" as="targetPoint" />
          </mxGeometry>
        </mxCell>
        <mxCell id="SgwJnI46MebYwalEIYTJ-10" value="check_order&lt;br&gt;is_existed" style="ellipse;whiteSpace=wrap;html=1;" vertex="1" parent="1">
          <mxGeometry x="315" y="260" width="110" height="90" as="geometry" />
        </mxCell>
        <mxCell id="SgwJnI46MebYwalEIYTJ-11" value="" style="edgeStyle=orthogonalEdgeStyle;rounded=0;orthogonalLoop=1;jettySize=auto;html=1;entryX=1;entryY=0.5;entryDx=0;entryDy=0;exitX=0;exitY=0.5;exitDx=0;exitDy=0;" edge="1" parent="1" target="SgwJnI46MebYwalEIYTJ-10" source="SgwJnI46MebYwalEIYTJ-8">
          <mxGeometry relative="1" as="geometry">
            <mxPoint x="390" y="220" as="sourcePoint" />
            <mxPoint x="350" y="199.5" as="targetPoint" />
          </mxGeometry>
        </mxCell>
        <mxCell id="SgwJnI46MebYwalEIYTJ-13" value="&lt;b&gt;Get Data From OMS_ORDER_HEADER,&lt;/b&gt;&lt;br&gt;SELECT ORDERNO FROM OMS_ORDER_HEADER WHERE ORDERNO = :orderNo and CHANNEL = :channel" style="rounded=1;whiteSpace=wrap;html=1;" vertex="1" parent="1">
          <mxGeometry x="-78" y="260" width="320" height="90" as="geometry" />
        </mxCell>
        <mxCell id="SgwJnI46MebYwalEIYTJ-14" value="" style="shape=flexArrow;endArrow=classic;startArrow=classic;html=1;rounded=0;" edge="1" parent="1" source="SgwJnI46MebYwalEIYTJ-13" target="SgwJnI46MebYwalEIYTJ-10">
          <mxGeometry width="100" height="100" relative="1" as="geometry">
            <mxPoint x="370" y="280" as="sourcePoint" />
            <mxPoint x="470" y="180" as="targetPoint" />
          </mxGeometry>
        </mxCell>
        <mxCell id="SgwJnI46MebYwalEIYTJ-16" value="Listen" style="text;html=1;align=center;verticalAlign=middle;resizable=0;points=[];autosize=1;strokeColor=none;fillColor=none;" vertex="1" parent="1">
          <mxGeometry x="470" y="280" width="50" height="20" as="geometry" />
        </mxCell>
        <mxCell id="SgwJnI46MebYwalEIYTJ-17" value="Check &lt;br&gt;by query" style="text;html=1;align=center;verticalAlign=middle;resizable=0;points=[];autosize=1;strokeColor=none;fillColor=none;" vertex="1" parent="1">
          <mxGeometry x="249" y="255" width="60" height="30" as="geometry" />
        </mxCell>
        <mxCell id="SgwJnI46MebYwalEIYTJ-19" value="process insertion order" style="rounded=1;whiteSpace=wrap;html=1;" vertex="1" parent="1">
          <mxGeometry x="160" y="400" width="120" height="60" as="geometry" />
        </mxCell>
        <mxCell id="SgwJnI46MebYwalEIYTJ-20" value="Message to telegram: &quot;Grab Order - #&quot; ++ orderId ++ &quot; already existing in OMS&quot;" style="rounded=1;whiteSpace=wrap;html=1;" vertex="1" parent="1">
          <mxGeometry x="460" y="400" width="250" height="60" as="geometry" />
        </mxCell>
        <mxCell id="SgwJnI46MebYwalEIYTJ-23" value="" style="strokeWidth=2;html=1;shape=mxgraph.flowchart.annotation_2;align=left;labelPosition=right;pointerEvents=1;rotation=90;" vertex="1" parent="1">
          <mxGeometry x="350.25" y="223.75" width="50" height="302.5" as="geometry" />
        </mxCell>
        <mxCell id="SgwJnI46MebYwalEIYTJ-24" value="is existed" style="text;html=1;align=center;verticalAlign=middle;resizable=0;points=[];autosize=1;strokeColor=none;fillColor=none;" vertex="1" parent="1">
          <mxGeometry x="425" y="350" width="70" height="20" as="geometry" />
        </mxCell>
        <mxCell id="SgwJnI46MebYwalEIYTJ-25" value="is NOT existed" style="text;html=1;align=center;verticalAlign=middle;resizable=0;points=[];autosize=1;strokeColor=none;fillColor=none;" vertex="1" parent="1">
          <mxGeometry x="260" y="350" width="90" height="20" as="geometry" />
        </mxCell>
        <mxCell id="SgwJnI46MebYwalEIYTJ-26" value="declare_query_parameter Sub Flow" style="ellipse;whiteSpace=wrap;html=1;" vertex="1" parent="1">
          <mxGeometry x="140" y="510" width="150" height="60" as="geometry" />
        </mxCell>
        <mxCell id="SgwJnI46MebYwalEIYTJ-28" value="" style="endArrow=classic;html=1;rounded=0;exitX=0.432;exitY=1.024;exitDx=0;exitDy=0;exitPerimeter=0;" edge="1" parent="1" source="SgwJnI46MebYwalEIYTJ-19">
          <mxGeometry width="50" height="50" relative="1" as="geometry">
            <mxPoint x="350" y="450" as="sourcePoint" />
            <mxPoint x="212" y="510" as="targetPoint" />
          </mxGeometry>
        </mxCell>
        <mxCell id="SgwJnI46MebYwalEIYTJ-31" value="" style="endArrow=classic;html=1;rounded=0;exitX=0.432;exitY=1.024;exitDx=0;exitDy=0;exitPerimeter=0;" edge="1" parent="1">
          <mxGeometry width="50" height="50" relative="1" as="geometry">
            <mxPoint x="212.84000000000015" y="568.44" as="sourcePoint" />
            <mxPoint x="213" y="617" as="targetPoint" />
          </mxGeometry>
        </mxCell>
        <mxCell id="SgwJnI46MebYwalEIYTJ-32" value="save_new_order_into_dwh" style="ellipse;whiteSpace=wrap;html=1;" vertex="1" parent="1">
          <mxGeometry x="136" y="618" width="150" height="60" as="geometry" />
        </mxCell>
        <mxCell id="SgwJnI46MebYwalEIYTJ-33" value="select seq_oms_order_header.nextval from dual" style="rounded=1;whiteSpace=wrap;html=1;" vertex="1" parent="1">
          <mxGeometry x="-140" y="618" width="220" height="60" as="geometry" />
        </mxCell>
        <mxCell id="SgwJnI46MebYwalEIYTJ-34" value="&lt;div&gt;INSERT INTO OMS_ORDER_HEADER (ORDERID, ORDERNO, STOREID,&amp;nbsp;&lt;/div&gt;&lt;div&gt;&lt;span&gt;									&lt;/span&gt;P_STOREID, ORDERSTATUS, DLV_STATUS, REASON, NOTE, CHANNEL, AMTTOTAL, TAXVALUE,&amp;nbsp;&lt;/div&gt;&lt;div&gt;&lt;span&gt;									&lt;/span&gt;AMTPROMO, PAYMENT_METHOD_ID, CREATEDBY, CREATEDDATE, MODIFIEDBY, MODIFIEDDATE,&lt;/div&gt;&lt;div&gt;&lt;span&gt;									&lt;/span&gt;SHIPPING_FEE, ORDER_DATE, CASHIERNO,SLOTID)&lt;/div&gt;&lt;div&gt;&lt;span&gt;				&lt;/span&gt;&amp;nbsp;&lt;/div&gt;&lt;div&gt;&lt;span&gt;					&lt;/span&gt;VALUES (:orderID, :orderNo,&amp;nbsp;&lt;/div&gt;&lt;div&gt;&lt;span&gt;							&lt;/span&gt;:storeID, :pStoreID, :orderStatus, NULL, :reason, NULL, :channel, :amtTotal,&amp;nbsp;&lt;/div&gt;&lt;div&gt;&lt;span&gt;							&lt;/span&gt;:taxValue, :amtPromo, :paymentMethodId, :createdBy, TO_DATE(:sysdate, &#39;YYYY-MM-DD HH24:MI:SS&#39;),&amp;nbsp;&lt;/div&gt;&lt;div&gt;&lt;span&gt;							&lt;/span&gt;:modifiedBy, TO_DATE(:modifiedDate, &#39;YYYY-MM-DD HH24:MI:SS&#39;), :shippingFee, TO_DATE(:orderDate, &#39;YYYY-MM-DD HH24:MI:SS&#39;), :cashier,:slotID)&lt;/div&gt;" style="rounded=1;whiteSpace=wrap;html=1;" vertex="1" parent="1">
          <mxGeometry x="-140" y="720" width="220" height="430" as="geometry" />
        </mxCell>
        <mxCell id="SgwJnI46MebYwalEIYTJ-35" value="" style="endArrow=classic;html=1;rounded=0;exitX=0.5;exitY=1;exitDx=0;exitDy=0;entryX=0.5;entryY=0;entryDx=0;entryDy=0;" edge="1" parent="1" source="SgwJnI46MebYwalEIYTJ-33" target="SgwJnI46MebYwalEIYTJ-34">
          <mxGeometry width="50" height="50" relative="1" as="geometry">
            <mxPoint x="180" y="800" as="sourcePoint" />
            <mxPoint x="230" y="750" as="targetPoint" />
          </mxGeometry>
        </mxCell>
        <mxCell id="SgwJnI46MebYwalEIYTJ-36" value="" style="shape=flexArrow;endArrow=classic;startArrow=classic;html=1;rounded=0;exitX=1;exitY=0.5;exitDx=0;exitDy=0;entryX=0;entryY=0.5;entryDx=0;entryDy=0;" edge="1" parent="1" source="SgwJnI46MebYwalEIYTJ-33" target="SgwJnI46MebYwalEIYTJ-32">
          <mxGeometry width="100" height="100" relative="1" as="geometry">
            <mxPoint x="150" y="830" as="sourcePoint" />
            <mxPoint x="250" y="730" as="targetPoint" />
          </mxGeometry>
        </mxCell>
        <mxCell id="SgwJnI46MebYwalEIYTJ-37" value="Scatter-Gather" style="ellipse;whiteSpace=wrap;html=1;" vertex="1" parent="1">
          <mxGeometry x="136" y="720" width="150" height="60" as="geometry" />
        </mxCell>
        <mxCell id="SgwJnI46MebYwalEIYTJ-38" value="" style="endArrow=classic;html=1;rounded=0;exitX=0.432;exitY=1.024;exitDx=0;exitDy=0;exitPerimeter=0;" edge="1" parent="1">
          <mxGeometry width="50" height="50" relative="1" as="geometry">
            <mxPoint x="210.47000000000014" y="671.44" as="sourcePoint" />
            <mxPoint x="210.63" y="720" as="targetPoint" />
          </mxGeometry>
        </mxCell>
        <mxCell id="SgwJnI46MebYwalEIYTJ-41" value="" style="endArrow=classic;html=1;rounded=0;exitX=0.432;exitY=1.024;exitDx=0;exitDy=0;exitPerimeter=0;" edge="1" parent="1">
          <mxGeometry width="50" height="50" relative="1" as="geometry">
            <mxPoint x="210.47000000000025" y="780" as="sourcePoint" />
            <mxPoint x="210.6300000000001" y="828.56" as="targetPoint" />
          </mxGeometry>
        </mxCell>
        <mxCell id="SgwJnI46MebYwalEIYTJ-42" value="Update Delivery Date" style="ellipse;whiteSpace=wrap;html=1;" vertex="1" parent="1">
          <mxGeometry x="136" y="828.56" width="150" height="60" as="geometry" />
        </mxCell>
        <mxCell id="SgwJnI46MebYwalEIYTJ-43" value="&lt;div&gt;UPDATE OMS_ORDER_HEADER&amp;nbsp;&lt;/div&gt;&lt;div&gt;SET OMS_ORDER_HEADER.DELIVERY_DATE&amp;nbsp;&lt;/div&gt;&lt;div&gt;= (&lt;span&gt;SELECT&amp;nbsp;&lt;/span&gt;&lt;span&gt;CASE&amp;nbsp;&lt;/span&gt;&lt;span&gt;WHEN To_CHAR(ORDER_DATE, &#39;HH24&#39;)&amp;lt;22&amp;nbsp;&lt;/span&gt;&lt;/div&gt;&lt;div&gt;&amp;nbsp; &amp;nbsp; &amp;nbsp; &amp;nbsp; &amp;nbsp; THEN TO_DATE(:sysdate, &#39;YYYY-MM-DD HH24:MI:SS&#39;)&lt;/div&gt;&lt;div&gt;&amp;nbsp; &amp;nbsp; &amp;nbsp; &amp;nbsp; &amp;nbsp; ELSE TO_DATE(:sysdate,&#39;YYYY-MM-DD HH24:MI:SS&#39;) + 1&amp;nbsp;&lt;/div&gt;&lt;div&gt;&amp;nbsp; &amp;nbsp; &amp;nbsp; &amp;nbsp; END FM_DELIVERYDATE&lt;/div&gt;&lt;div&gt;&amp;nbsp; FROM OMS_ORDER_HEADER&lt;/div&gt;&lt;div&gt;&amp;nbsp; WHERE OMS_ORDER_HEADER.ORDERNO = :orderNo&lt;/div&gt;&lt;div&gt;)&lt;/div&gt;&lt;div&gt;WHERE OMS_ORDER_HEADER.ORDERNO = :orderNo&lt;/div&gt;" style="rounded=1;whiteSpace=wrap;html=1;align=left;" vertex="1" parent="1">
          <mxGeometry x="350" y="800" width="360" height="210" as="geometry" />
        </mxCell>
      </root>
    </mxGraphModel>
  </diagram>
</mxfile>
